<svg xmlns="http://www.w3.org/2000/svg" xmlns:xlink="http://www.w3.org/1999/xlink" width="500" zoomAndPan="magnify" viewBox="0 0 375 374.999991" height="500" preserveAspectRatio="xMidYMid meet" version="1.0"><defs><clipPath id="c74293c0d8"><path d="M 33 3 L 338 3 L 338 372 L 33 372 Z M 33 3 " clip-rule="nonzero"/></clipPath><clipPath id="48e5a4b809"><path d="M 33.535156 70.886719 L 238.710938 3.367188 L 337.644531 304.007812 L 132.46875 371.527344 Z M 33.535156 70.886719 " clip-rule="nonzero"/></clipPath><clipPath id="048ebb515e"><path d="M 19 49 L 275 49 L 275 311 L 19 311 Z M 19 49 " clip-rule="nonzero"/></clipPath><clipPath id="459824b8df"><path d="M 0.535156 67.886719 L 205.710938 0.367188 L 304.644531 301.007812 L 99.46875 368.527344 Z M 0.535156 67.886719 " clip-rule="nonzero"/></clipPath><clipPath id="4daea3df37"><path d="M 205.542969 0.421875 L 0.367188 67.941406 L 99.300781 368.582031 L 304.476562 301.0625 Z M 205.542969 0.421875 " clip-rule="nonzero"/></clipPath><clipPath id="384ff7b057"><path d="M 205.542969 0.421875 L 0.367188 67.941406 L 99.300781 368.582031 L 304.476562 301.0625 Z M 205.542969 0.421875 " clip-rule="nonzero"/></clipPath><clipPath id="140c276c7b"><rect x="0" width="305" y="0" height="369"/></clipPath></defs><rect x="-37.5" width="450" fill="#ffffff" y="-37.499999" height="449.999989" fill-opacity="1"/><rect x="-37.5" width="450" fill="#f5ece3" y="-37.499999" height="449.999989" fill-opacity="1"/><g clip-path="url(#c74293c0d8)"><g clip-path="url(#48e5a4b809)"><g transform="matrix(1, 0, 0, 1, 33, 3)"><g clip-path="url(#140c276c7b)"><g clip-path="url(#048ebb515e)"><g clip-path="url(#459824b8df)"><g clip-path="url(#4daea3df37)"><g clip-path="url(#384ff7b057)"><path fill="#000000" d="M 98.445312 94.960938 C 98.039062 92.101562 97.78125 89.230469 97.699219 86.34375 C 97.601562 82.703125 97.789062 79.050781 98.148438 75.394531 C 98.367188 73.226562 98.691406 71.070312 99.128906 68.925781 C 99.566406 66.773438 100.128906 64.660156 100.828125 62.585938 C 100.953125 62.226562 101.375 60.519531 101.863281 59.859375 C 102.105469 59.542969 102.394531 59.394531 102.65625 59.363281 C 102.90625 59.324219 103.167969 59.402344 103.445312 59.632812 C 104.226562 60.332031 104.710938 61.195312 105.023438 62.148438 C 105.433594 63.414062 105.5 64.835938 105.722656 66.09375 C 105.953125 67.597656 106.113281 69.097656 106.25 70.605469 C 106.574219 74.09375 106.734375 77.574219 107.050781 81.078125 C 107.167969 82.328125 107.320312 83.59375 107.414062 84.867188 C 107.476562 85.734375 107.507812 86.597656 107.484375 87.464844 C 107.453125 88.863281 107.371094 90.25 107.214844 91.632812 C 107.058594 93.027344 106.832031 94.421875 106.496094 95.78125 C 105.875 98.464844 103.738281 100.984375 102.902344 103.621094 C 102.800781 103.914062 102.734375 104.230469 102.667969 104.542969 C 102.628906 104.707031 102.589844 104.871094 102.558594 105.035156 C 103.261719 106.59375 103.949219 108.128906 104.636719 109.664062 C 105.480469 111.535156 106.363281 113.367188 107.191406 115.214844 C 109.921875 121.335938 112.617188 127.382812 116.171875 133.285156 C 119.621094 139.027344 123.789062 144.675781 129.382812 150.199219 C 131.078125 151.871094 132.820312 153.445312 134.605469 154.96875 C 137.007812 156.605469 139.289062 158.417969 141.769531 160.40625 C 141.859375 160.472656 141.882812 160.601562 141.820312 160.691406 C 144.234375 162.464844 146.699219 164.164062 149.21875 165.789062 C 154.566406 169.230469 160.082031 172.394531 165.679688 175.449219 C 171.273438 178.5 176.949219 181.433594 182.507812 184.609375 C 200.835938 195.011719 217.917969 207.308594 232.417969 221.992188 L 202.65625 197.226562 C 201.453125 195.722656 200.476562 194.144531 199.6875 192.492188 C 198.96875 190.992188 198.398438 189.433594 197.992188 187.820312 C 197.644531 186.449219 197.449219 185.046875 197.296875 183.625 C 197.207031 183.320312 197.121094 183.015625 197.035156 182.726562 C 196.484375 180.871094 195.898438 179.023438 195.488281 177.117188 C 195.175781 175.640625 194.914062 174.148438 194.757812 172.644531 C 194.59375 171.132812 194.609375 169.628906 194.53125 168.117188 C 194.40625 165.785156 194.289062 163.453125 194.253906 161.132812 C 193.664062 158.234375 192.523438 155.40625 191.15625 152.640625 C 189.515625 149.3125 187.496094 146.105469 185.699219 142.96875 C 185.226562 142.136719 184.78125 141.300781 184.347656 140.484375 C 183.082031 138.058594 181.894531 135.621094 181.011719 133.054688 C 180.546875 131.710938 180.234375 130.34375 179.882812 128.960938 C 179.820312 128.84375 179.757812 128.738281 179.691406 128.621094 C 179.671875 128.640625 179.648438 128.648438 179.625 128.65625 C 179.445312 128.714844 179.246094 128.628906 179.179688 128.441406 C 178.894531 127.925781 178.605469 127.425781 178.382812 126.886719 C 178.320312 126.742188 178.269531 126.605469 178.21875 126.472656 C 178.152344 126.382812 178.085938 126.292969 178.027344 126.199219 C 178.007812 126.167969 177.992188 126.144531 177.976562 126.121094 C 177.828125 125.921875 177.671875 125.734375 177.515625 125.550781 C 176.039062 123.789062 174.042969 122.589844 172.066406 121.3125 C 171.734375 121.101562 171.402344 120.90625 171.085938 120.664062 C 170.320312 120.097656 169.628906 119.453125 168.976562 118.777344 C 168.171875 117.933594 167.460938 117.015625 166.90625 115.9375 C 166.617188 115.339844 166.367188 114.726562 166.175781 114.097656 C 165.816406 112.910156 165.640625 111.652344 165.371094 110.421875 C 165.113281 109.261719 164.777344 108.121094 164.324219 107.039062 C 162.621094 103.007812 161.097656 99.085938 159.621094 95.160156 C 158.972656 93.433594 158.269531 91.734375 157.707031 89.980469 C 156.910156 87.496094 156.292969 84.9375 155.8125 82.269531 C 155.492188 80.363281 155.3125 78.4375 155.300781 76.5 C 155.277344 73.667969 155.566406 70.824219 155.761719 68.027344 C 155.890625 66.265625 156.003906 64.078125 156.269531 61.816406 C 156.433594 60.441406 156.664062 59.035156 156.933594 57.671875 C 157.164062 56.472656 157.40625 55.3125 157.765625 54.238281 C 158.175781 53.003906 158.699219 51.917969 159.277344 50.980469 C 159.460938 50.695312 159.660156 50.644531 159.773438 50.648438 C 159.925781 50.652344 160.109375 50.703125 160.238281 50.910156 C 160.300781 51.015625 160.351562 51.566406 160.40625 51.785156 L 160.839844 53.347656 L 162.429688 58.59375 C 163.503906 62.636719 164.8125 66.617188 165.941406 70.640625 C 166.226562 71.65625 166.5 72.675781 166.757812 73.703125 C 167.355469 76.113281 168.21875 78.394531 169.171875 80.644531 C 170.757812 84.394531 172.671875 88.007812 174.394531 91.683594 C 175.15625 93.308594 175.863281 94.933594 176.5 96.59375 C 177.261719 98.589844 177.90625 100.625 178.390625 102.726562 C 178.847656 104.796875 178.992188 106.898438 178.851562 108.996094 C 178.8125 109.578125 178.765625 110.160156 178.699219 110.738281 C 178.789062 114.175781 178.457031 117.710938 179.167969 121.042969 C 179.386719 122.078125 179.613281 123.113281 179.902344 124.128906 C 180.242188 125.332031 180.632812 126.507812 181.078125 127.679688 C 180.777344 125.851562 180.480469 124.019531 180.253906 122.167969 C 179.9375 119.082031 179.761719 115.878906 179.8125 112.671875 C 179.867188 109.464844 180.152344 106.253906 180.660156 103.171875 C 181.0625 101.085938 181.507812 98.96875 182.082031 96.894531 C 182.472656 95.503906 182.921875 94.136719 183.453125 92.796875 L 184.800781 89.703125 L 185.53125 88.351562 C 185.625 88.199219 185.75 87.863281 185.839844 87.722656 C 185.945312 87.566406 186.101562 87.542969 186.199219 87.480469 C 186.359375 87.375 186.429688 87.558594 186.65625 87.539062 C 186.746094 87.539062 186.734375 87.652344 186.851562 87.683594 C 186.917969 87.703125 186.945312 87.722656 186.996094 87.761719 C 187.265625 87.976562 187.335938 88.410156 187.445312 88.804688 C 187.671875 89.589844 187.753906 90.546875 187.90625 91.179688 L 189.449219 97.464844 C 190.097656 100.152344 191.050781 102.761719 191.785156 105.433594 C 191.972656 106.109375 192.148438 106.796875 192.296875 107.484375 C 192.488281 108.335938 192.578125 109.195312 192.613281 110.042969 C 192.664062 111.273438 192.605469 112.511719 192.597656 113.765625 C 192.589844 116.207031 192.566406 118.53125 192.359375 120.847656 C 192.222656 122.402344 192.007812 123.972656 191.625 125.582031 C 190.855469 128.996094 188.238281 131.4375 187.148438 134.390625 C 186.867188 135.175781 186.675781 135.976562 186.679688 136.902344 C 186.683594 137.277344 186.671875 137.65625 186.726562 138.066406 C 186.8125 138.382812 186.65625 138.714844 186.367188 138.835938 C 186.445312 138.976562 186.523438 139.117188 186.601562 139.257812 C 187.042969 140.054688 187.515625 140.855469 187.976562 141.675781 C 189.78125 144.882812 191.644531 148.25 193.183594 151.695312 C 193.617188 152.664062 194.023438 153.652344 194.390625 154.640625 C 194.402344 154.332031 194.417969 154.023438 194.425781 153.714844 C 194.496094 152.011719 194.507812 150.332031 194.660156 148.671875 C 194.898438 146.097656 195.335938 143.59375 195.839844 141.167969 C 196.925781 136.179688 198.457031 131.210938 200.21875 126.304688 C 202.085938 121.070312 204.167969 115.894531 206.066406 110.734375 C 206.40625 109.800781 206.734375 108.875 207.074219 107.960938 C 207.082031 107.777344 207.085938 107.597656 207.085938 107.429688 C 207.109375 106.382812 206.957031 105.324219 206.738281 104.257812 C 206.421875 102.738281 205.929688 101.222656 205.558594 99.707031 C 205.292969 98.617188 205.089844 97.519531 204.980469 96.445312 C 204.78125 94.320312 204.714844 92.039062 204.980469 89.804688 C 205.246094 87.550781 205.828125 85.347656 206.691406 83.359375 C 207.339844 81.871094 208.140625 80.621094 209.0625 79.5 C 209.726562 78.683594 210.46875 77.96875 211.21875 77.25 C 211.949219 76.554688 212.703125 75.863281 213.460938 75.15625 C 214.425781 74.269531 215.371094 73.320312 216.332031 72.308594 C 216.605469 72.027344 216.855469 71.734375 217.09375 71.421875 C 217.695312 70.652344 218.238281 69.835938 218.867188 69.089844 C 219.15625 68.746094 219.410156 68.382812 219.652344 68.027344 C 220.265625 67.117188 220.796875 66.179688 221.441406 65.261719 C 221.636719 65.003906 222.039062 64.425781 222.445312 64.222656 C 222.519531 64.1875 222.582031 64.125 222.648438 64.128906 C 223.046875 64.207031 222.96875 64.050781 223.136719 64.316406 C 223.3125 64.3125 223.605469 64.464844 223.855469 64.8125 C 224.261719 65.386719 224.75 66.503906 224.824219 66.671875 L 225.199219 67.574219 L 225.539062 68.53125 C 226.386719 70.816406 226.90625 73.40625 227.125 76.011719 C 227.347656 78.640625 227.261719 81.304688 226.804688 83.746094 C 226.597656 84.824219 226.3125 85.875 225.925781 86.890625 C 225.539062 87.890625 225.054688 88.867188 224.527344 89.804688 C 222.984375 92.574219 220.960938 95.097656 218.984375 97.496094 C 218.023438 98.585938 217.179688 99.765625 216.273438 100.898438 C 215.863281 101.421875 215.4375 101.921875 214.980469 102.390625 C 214.058594 103.375 213.007812 104.21875 212.0625 105.179688 C 211.683594 105.554688 211.328125 105.949219 211.003906 106.375 C 209.429688 108.585938 208.292969 110.929688 207.246094 113.3125 C 206.757812 114.429688 206.300781 115.566406 205.835938 116.703125 L 205.832031 116.703125 C 206.761719 115.925781 207.835938 115.253906 209.199219 114.429688 C 210.152344 113.855469 211.046875 113.199219 211.976562 112.589844 C 212.40625 112.320312 212.84375 112.054688 213.296875 111.820312 C 214.804688 111.074219 216.410156 110.421875 218.054688 109.851562 C 220.449219 109.007812 222.933594 108.332031 225.269531 107.589844 C 226.5 107.226562 227.71875 106.964844 228.949219 106.765625 C 230.757812 106.492188 232.570312 106.351562 234.433594 106.167969 L 238.386719 105.839844 C 238.660156 105.816406 239.160156 105.652344 239.414062 105.640625 C 239.554688 105.621094 239.660156 105.683594 239.761719 105.71875 C 240.003906 105.804688 240.066406 106.035156 240.082031 106.417969 C 240.097656 106.800781 239.941406 107.253906 239.714844 107.71875 C 239.542969 108.050781 239.304688 108.351562 239.171875 108.574219 C 238.59375 109.527344 238 110.417969 237.371094 111.289062 C 236.75 112.175781 236.09375 113.027344 235.386719 113.882812 C 234.339844 115.160156 233.140625 116.453125 231.808594 117.695312 C 229.9375 119.4375 227.820312 121.089844 225.542969 122.433594 C 221.585938 124.777344 217.179688 126.214844 212.933594 126.042969 C 212.035156 126.046875 211.121094 125.917969 210.207031 125.734375 C 208.917969 125.480469 207.628906 125.113281 206.398438 124.785156 C 205.777344 124.625 205.085938 124.425781 204.394531 124.332031 C 203.933594 124.261719 203.488281 124.296875 203.050781 124.375 C 203.035156 124.378906 203.019531 124.371094 203.003906 124.375 C 202.511719 125.714844 202.023438 127.070312 201.546875 128.402344 C 200.003906 132.765625 198.527344 137.121094 197.480469 141.53125 C 196.902344 143.898438 196.46875 146.34375 196.066406 148.847656 C 195.804688 150.472656 195.496094 152.097656 195.347656 153.769531 C 195.25 154.828125 195.199219 155.898438 195.175781 156.976562 C 195.554688 158.238281 195.859375 159.523438 196.066406 160.816406 C 196.402344 163.519531 196.511719 166.230469 196.632812 168.949219 C 196.691406 170.207031 196.746094 171.476562 196.808594 172.734375 C 197.082031 174.042969 197.359375 175.355469 197.648438 176.644531 C 198.066406 178.488281 198.433594 180.339844 198.992188 182.136719 C 199.328125 183.21875 199.753906 184.257812 200.144531 185.308594 C 200.730469 186.90625 201.367188 188.46875 201.992188 190.027344 C 202.160156 190.457031 202.289062 190.886719 202.460938 191.300781 C 203.164062 192.984375 204.007812 194.578125 204.929688 196.117188 C 205.800781 197.578125 206.800781 198.941406 207.804688 200.277344 C 207.828125 200.296875 207.847656 200.316406 207.875 200.335938 C 208.230469 200.636719 208.769531 200.777344 208.972656 201.207031 C 209.121094 201.519531 208.992188 201.480469 208.957031 201.742188 C 217.308594 207.9375 225.183594 214.664062 232.417969 221.992188 C 238.292969 227.9375 243.757812 234.265625 248.683594 241.046875 C 255.941406 251.042969 262.039062 262.003906 266.769531 273.941406 C 267.609375 276.09375 268.386719 278.195312 269.105469 280.289062 C 269.171875 280.417969 269.238281 280.5625 269.300781 280.695312 C 269.46875 281.042969 269.621094 281.394531 269.746094 281.753906 C 269.933594 282.316406 270.054688 282.875 270.175781 283.445312 C 270.199219 283.519531 270.214844 283.597656 270.214844 283.667969 C 271.078125 286.433594 271.824219 289.167969 272.433594 291.949219 C 273.753906 297.921875 274.453125 304.003906 274.890625 310.625 C 274.898438 310.71875 274.828125 310.800781 274.730469 310.816406 C 274.632812 310.824219 274.546875 310.753906 274.539062 310.660156 C 273.601562 304.144531 272.289062 298.226562 270.707031 292.378906 C 269.617188 288.355469 268.402344 284.375 266.9375 280.292969 C 265.527344 277.746094 263.785156 275.410156 261.765625 273.269531 C 261.300781 272.773438 260.804688 272.296875 260.335938 271.785156 C 260.003906 271.425781 259.734375 271.027344 259.386719 270.6875 C 259.238281 270.539062 259.070312 270.414062 258.910156 270.285156 C 257.148438 268.800781 255.304688 267.410156 253.390625 266.125 C 250.421875 264.148438 247.335938 262.433594 244.457031 260.757812 C 242.609375 259.714844 240.710938 258.761719 238.789062 257.851562 C 236.875 257.457031 235.152344 257.148438 233.421875 257.277344 C 232.058594 257.378906 230.710938 257.597656 229.351562 257.933594 C 227.402344 258.410156 225.429688 259.074219 223.277344 259.628906 C 218.363281 260.886719 213.050781 262.21875 207.796875 262.324219 C 204.1875 262.402344 200.628906 261.882812 197.269531 260.589844 L 188.371094 257.027344 L 185.710938 256 C 185.648438 255.980469 184.441406 255.601562 183.964844 255.453125 C 183.863281 255.417969 183.789062 255.386719 183.761719 255.382812 C 183.699219 255.359375 183.664062 255.332031 183.644531 255.324219 C 183.0625 255 183.308594 254.464844 183.367188 254.332031 C 183.441406 254.183594 183.769531 253.894531 184.304688 253.691406 C 185.070312 253.398438 186.417969 253.066406 186.59375 253.007812 C 187.742188 252.613281 188.898438 252.289062 190.070312 252.015625 C 191.777344 251.621094 193.503906 251.316406 195.222656 250.890625 C 197.382812 250.386719 199.628906 250.0625 201.902344 249.871094 C 205.253906 249.585938 208.664062 249.585938 211.917969 249.667969 C 214.824219 249.765625 217.820312 249.941406 220.800781 250.320312 C 216.382812 248.652344 211.960938 247.074219 207.628906 245.433594 C 202.398438 243.4375 197.109375 241.476562 191.800781 239.5625 C 188.140625 238.242188 184.46875 236.941406 180.777344 235.726562 C 180.300781 235.621094 179.832031 235.539062 179.375 235.46875 C 179.367188 235.496094 179.363281 235.542969 179.347656 235.574219 C 179.269531 235.753906 179.058594 235.847656 178.875 235.769531 C 177.917969 235.421875 176.941406 235.117188 175.964844 234.828125 C 174.105469 234.582031 172.21875 234.480469 170.214844 234.238281 C 168.417969 234.066406 166.386719 233.847656 164.421875 233.925781 C 163.125 233.964844 161.867188 234.15625 160.730469 234.558594 C 156.5 236.019531 152.234375 238.796875 147.789062 240.816406 C 145.808594 241.714844 143.789062 242.4375 141.757812 242.894531 C 139.601562 243.371094 137.414062 243.550781 135.214844 243.175781 C 134.308594 243.03125 133.394531 242.765625 132.484375 242.414062 C 131.640625 242.09375 130.863281 241.683594 130.121094 241.21875 C 129.078125 240.578125 128.09375 239.835938 127.035156 239.144531 C 126.089844 238.539062 125.167969 237.96875 124.242188 237.429688 C 123.273438 236.875 122.300781 236.347656 121.351562 235.746094 C 120.546875 235.246094 119.75 234.703125 118.964844 234.089844 C 118.277344 233.550781 116.382812 232.886719 115.464844 232.078125 C 114.953125 231.621094 114.695312 231.113281 114.667969 230.605469 C 114.65625 230.417969 114.785156 229.875 115.445312 229.546875 C 116.167969 229.199219 118.148438 228.601562 118.277344 228.558594 C 120.015625 227.972656 121.828125 227.527344 123.667969 227.203125 C 125.488281 226.878906 127.328125 226.675781 129.125 226.5 C 131.628906 226.273438 134.152344 226.179688 136.671875 226.167969 C 139.179688 226.160156 141.6875 226.265625 144.175781 226.359375 C 146.742188 226.488281 149.308594 226.613281 151.847656 226.886719 C 154.425781 227.160156 156.96875 227.574219 159.476562 228.148438 C 161.488281 228.625 163.488281 229.144531 165.410156 229.941406 C 165.644531 230.03125 165.875 230.132812 166.105469 230.238281 C 169.503906 230.964844 172.878906 231.78125 176.242188 232.671875 C 181.148438 233.984375 186.023438 235.429688 190.855469 237.015625 C 189.46875 236.085938 188.128906 235.113281 186.808594 234.089844 C 184.882812 232.601562 183.027344 231.007812 181.171875 229.414062 C 179.769531 228.210938 178.367188 226.980469 176.960938 225.765625 C 176.597656 225.453125 176.226562 225.160156 175.851562 224.867188 C 175.792969 224.871094 175.734375 224.835938 175.699219 224.792969 C 175.320312 224.488281 174.941406 224.28125 174.589844 223.953125 C 174.472656 223.851562 174.359375 223.738281 174.246094 223.632812 C 173.726562 223.25 173.199219 222.871094 172.667969 222.503906 C 171.179688 221.480469 169.660156 220.566406 168.144531 219.902344 C 167.253906 219.5 166.335938 219.179688 165.398438 218.878906 C 163.148438 218.164062 160.808594 217.640625 158.589844 216.945312 C 155.871094 216.0625 153.28125 215.070312 150.761719 213.902344 C 148.246094 212.75 145.804688 211.417969 143.351562 209.976562 C 141.820312 209.050781 140.078125 208.015625 138.496094 206.832031 C 137.390625 206.003906 136.363281 205.105469 135.511719 204.136719 C 134.5625 203.050781 133.84375 201.898438 133.28125 200.683594 C 132.476562 198.953125 131.972656 197.121094 131.324219 195.199219 C 130.929688 194.148438 130.390625 193.132812 129.9375 192.105469 C 129.726562 191.621094 129.535156 191.140625 129.371094 190.640625 C 129.269531 190.328125 129.34375 190.09375 129.417969 189.945312 C 129.417969 189.945312 129.421875 189.945312 129.425781 189.945312 C 129.378906 189.875 129.328125 189.796875 129.28125 189.726562 C 129.179688 189.636719 129.175781 189.484375 129.265625 189.386719 C 129.355469 189.285156 129.511719 189.277344 129.609375 189.371094 C 129.699219 189.421875 129.78125 189.464844 129.871094 189.519531 C 129.894531 189.511719 129.910156 189.492188 129.933594 189.484375 C 130.0625 189.441406 130.261719 189.402344 130.507812 189.476562 C 130.625 189.507812 130.855469 189.640625 130.976562 189.683594 L 132.660156 190.335938 L 137.074219 192.488281 C 138.976562 193.429688 140.816406 194.5 142.613281 195.65625 C 144.398438 196.804688 146.132812 198.023438 147.832031 199.265625 C 149.464844 200.460938 151.109375 201.652344 152.722656 202.871094 C 154.339844 204.085938 155.933594 205.351562 157.515625 206.605469 C 160.695312 209.136719 163.808594 211.746094 166.847656 214.460938 C 168.941406 216.351562 171.003906 218.085938 172.832031 220.050781 C 173.019531 220.25 173.214844 220.464844 173.40625 220.667969 C 177.003906 223.394531 180.46875 226.234375 183.949219 229.027344 C 184.550781 229.507812 185.148438 229.992188 185.75 230.472656 C 185.1875 229.714844 184.648438 228.949219 184.125 228.179688 C 182.207031 225.355469 180.484375 222.414062 178.644531 219.484375 C 177.441406 217.480469 176.316406 215.714844 175.457031 213.792969 C 174.875 212.5 174.414062 211.125 174.089844 209.582031 C 173.886719 208.664062 173.609375 207.742188 173.410156 206.8125 C 173.320312 206.394531 173.238281 205.980469 173.195312 205.5625 C 173.125 204.90625 173.125 204.242188 173.148438 203.554688 C 173.21875 202.046875 173.457031 200.5 173.578125 199.03125 L 173.582031 196.464844 C 173.578125 196.4375 173.667969 195.933594 173.621094 195.742188 C 173.574219 195.550781 173.675781 195.53125 173.652344 195.46875 C 173.613281 195.34375 173.785156 195.398438 173.785156 195.316406 C 173.78125 195.21875 173.894531 195.292969 173.90625 195.21875 C 173.914062 195.160156 173.980469 195.222656 174 195.175781 C 174.070312 194.972656 174.230469 195.25 174.378906 195.132812 C 174.53125 195.027344 174.59375 195.105469 174.8125 195.117188 C 174.988281 195.128906 175.148438 195.308594 175.316406 195.476562 C 175.824219 195.976562 176.324219 196.988281 176.566406 197.355469 C 177.070312 198.132812 177.601562 198.886719 178.160156 199.628906 C 179.011719 200.765625 179.90625 201.855469 180.753906 202.992188 C 181.898438 204.390625 182.882812 205.84375 183.8125 207.285156 C 184.773438 208.785156 185.652344 210.285156 186.449219 211.851562 C 187.722656 214.34375 188.855469 216.914062 189.6875 219.691406 C 189.886719 220.359375 190.054688 221.054688 190.222656 221.746094 C 190.746094 223.917969 191.179688 226.175781 191.59375 228.410156 C 191.769531 229.351562 191.9375 230.292969 192.125 231.21875 C 192.441406 232.765625 192.902344 234.25 193.375 235.742188 C 194.066406 236.429688 194.746094 237.136719 195.359375 237.90625 C 195.824219 238.265625 196.277344 238.65625 196.742188 239.015625 C 200.667969 240.386719 204.566406 241.835938 208.445312 243.265625 C 215.871094 246.050781 223.601562 248.609375 231.011719 251.785156 C 233.003906 252.644531 234.976562 253.535156 236.894531 254.511719 C 239.792969 255.984375 242.578125 257.660156 245.269531 259.453125 C 248.070312 261.277344 251.027344 263.242188 253.957031 265.300781 C 255.957031 266.710938 257.871094 268.269531 259.824219 269.75 C 260.25 270.066406 260.710938 270.332031 261.132812 270.652344 C 261.554688 270.984375 261.949219 271.339844 262.339844 271.695312 C 263.042969 272.339844 263.722656 273.003906 264.367188 273.675781 C 259.703125 262.355469 253.730469 251.980469 246.789062 242.421875 C 241.929688 235.726562 236.609375 229.433594 230.855469 223.519531 C 225.523438 218.035156 219.835938 212.875 213.859375 208.019531 C 213.707031 208.109375 213.507812 208.09375 213.367188 207.972656 C 212.195312 207.097656 211.066406 206.191406 210.015625 205.195312 C 209.671875 204.863281 209.335938 204.527344 209.011719 204.191406 C 200.382812 197.574219 191.214844 191.535156 181.699219 186.011719 C 176.164062 182.828125 170.554688 179.792969 164.941406 176.796875 C 159.285156 173.777344 153.636719 170.785156 148.164062 167.46875 C 143.777344 164.804688 139.480469 161.992188 135.390625 158.800781 C 133.199219 157.09375 131.074219 155.273438 129.003906 153.34375 C 127.875 152.828125 126.695312 152.34375 125.445312 151.894531 C 123.53125 151.207031 121.574219 150.796875 119.628906 150.355469 C 117.621094 149.894531 115.625 149.453125 113.644531 148.941406 C 112.265625 148.578125 110.929688 148.101562 109.566406 147.664062 C 109.230469 147.566406 108.882812 147.472656 108.539062 147.363281 C 106.320312 146.691406 104.148438 145.851562 102.007812 144.90625 C 98.816406 143.488281 95.710938 141.863281 92.679688 140.238281 C 89.484375 138.558594 86.375 136.445312 83.292969 134.191406 C 82.023438 133.261719 80.769531 132.316406 79.503906 131.359375 C 78.519531 130.628906 77.523438 129.886719 76.53125 129.175781 C 76.441406 129.136719 76.351562 129.09375 76.269531 129.066406 C 75.050781 128.578125 73.882812 128.367188 72.679688 128.457031 C 71.449219 128.558594 70.203125 128.886719 68.96875 129.363281 C 67.152344 130.070312 65.355469 131.0625 63.539062 131.855469 C 62.738281 132.203125 61.917969 132.484375 61.09375 132.742188 C 59.871094 133.105469 58.628906 133.386719 57.375 133.675781 C 53.691406 134.515625 49.894531 135.195312 46.109375 135.21875 C 43.539062 135.234375 40.984375 134.921875 38.472656 134.265625 C 37.21875 133.902344 35.957031 133.429688 34.710938 132.898438 C 32.902344 132.121094 31.117188 131.222656 29.40625 130.441406 C 27.777344 129.699219 26.101562 128.976562 24.503906 128.140625 C 24.015625 127.886719 23.535156 127.601562 23.054688 127.34375 C 21.890625 126.699219 20.757812 126.03125 19.738281 125.175781 C 19.207031 124.726562 19.296875 124.238281 19.429688 123.878906 C 19.503906 123.644531 19.714844 123.421875 20.046875 123.214844 C 20.445312 122.972656 21.480469 122.800781 21.953125 122.617188 C 22.429688 122.460938 22.902344 122.304688 23.382812 122.160156 C 24.492188 121.851562 25.613281 121.605469 26.734375 121.347656 C 28.691406 120.898438 30.640625 120.492188 32.597656 120.125 C 34.5625 119.769531 36.527344 119.445312 38.519531 119.164062 C 44.511719 118.410156 51.109375 118.363281 57.527344 119.367188 C 59.867188 119.722656 62.195312 120.21875 64.453125 120.875 C 64.832031 120.933594 65.207031 121.003906 65.582031 121.085938 C 67.828125 121.609375 69.945312 122.5625 72.03125 123.625 C 73.15625 124.199219 74.265625 124.816406 75.355469 125.496094 C 70.8125 121.003906 66.628906 116.164062 63.050781 110.839844 C 61.503906 108.519531 60.011719 106.222656 58.675781 103.859375 C 57.324219 101.464844 56.128906 99 55.070312 96.394531 L 53.40625 92.117188 L 52.898438 90.382812 C 52.863281 90.226562 52.710938 89.902344 52.6875 89.757812 C 52.644531 89.46875 52.699219 89.253906 52.777344 89.105469 C 52.960938 88.765625 53.273438 88.402344 53.9375 88.640625 C 54.449219 88.816406 54.976562 89.171875 55.460938 89.621094 C 56.324219 90.449219 57.117188 91.601562 57.707031 92.308594 C 58.667969 93.363281 59.640625 94.40625 60.605469 95.445312 C 62.054688 96.992188 63.515625 98.539062 65.042969 100.03125 C 66.667969 101.660156 68.339844 103.246094 70.046875 104.792969 C 74.0625 108.421875 78.214844 111.910156 82.011719 115.75 C 84.355469 118.125 86.570312 120.628906 88.554688 123.359375 C 89.550781 124.710938 90.332031 126.160156 91.042969 127.65625 C 92 129.671875 92.851562 131.738281 93.765625 133.765625 C 94.230469 134.804688 94.726562 135.820312 95.277344 136.832031 C 95.414062 137.078125 95.53125 137.332031 95.675781 137.589844 C 96.398438 138.875 97.320312 139.972656 98.378906 140.984375 C 98.8125 141.398438 99.253906 141.804688 99.726562 142.191406 C 100.082031 142.476562 100.445312 142.746094 100.8125 143.011719 C 101.367188 143.300781 101.929688 143.585938 102.496094 143.875 C 104.554688 144.886719 106.660156 145.789062 108.816406 146.523438 C 109.277344 146.660156 109.746094 146.8125 110.214844 146.921875 C 112.125 147.386719 114.074219 147.578125 116.011719 147.871094 C 117.640625 148.113281 119.273438 148.378906 120.886719 148.75 C 122.597656 149.144531 124.277344 149.6875 125.9375 150.347656 C 118.945312 143.175781 114.136719 135.828125 110.269531 128.238281 C 108.261719 124.292969 106.460938 120.308594 104.828125 116.214844 C 104.078125 114.328125 103.40625 112.398438 102.679688 110.472656 C 102.308594 109.5 101.941406 108.527344 101.5625 107.539062 C 101.40625 107.453125 101.28125 107.3125 101.222656 107.140625 C 101.132812 106.949219 101.046875 106.738281 100.980469 106.539062 C 100.425781 105.765625 99.789062 105.03125 99.085938 104.347656 C 98.40625 103.683594 97.652344 103.058594 96.878906 102.4375 C 93.789062 99.988281 90.140625 97.863281 86.871094 95.953125 C 85.722656 95.28125 84.613281 94.644531 83.617188 93.976562 C 77.058594 89.714844 70.839844 85.378906 65.859375 79.972656 C 62.769531 76.621094 60.171875 72.84375 58.179688 68.578125 C 56.929688 65.894531 55.957031 63.011719 55.246094 59.890625 C 54.964844 58.484375 54.691406 56.9375 54.53125 55.398438 C 54.453125 54.632812 54.425781 53.863281 54.378906 53.117188 C 54.328125 52.316406 54.257812 51.535156 54.28125 50.792969 C 54.296875 50.191406 54.6875 50.046875 55.011719 49.996094 C 55.152344 49.976562 55.351562 50.007812 55.574219 50.128906 C 55.738281 50.230469 56.019531 50.523438 56.179688 50.625 L 58.5625 52.238281 L 62.804688 55.199219 C 64.820312 56.628906 66.78125 58.148438 68.703125 59.734375 C 70.609375 61.3125 72.472656 62.945312 74.296875 64.578125 C 75.984375 66.101562 77.652344 67.605469 79.257812 69.171875 C 81.699219 71.542969 84.015625 74 86.234375 76.542969 C 87.351562 77.824219 88.445312 79.113281 89.492188 80.460938 C 91.898438 83.550781 94.09375 86.839844 96.09375 90.328125 C 96.96875 91.855469 97.75 93.386719 98.445312 94.960938 Z M 235.234375 256.222656 C 234.59375 256.222656 233.96875 256.265625 233.355469 256.3125 C 231.941406 256.417969 230.554688 256.679688 229.132812 256.980469 C 227.175781 257.402344 225.15625 257.902344 222.984375 258.339844 C 218.136719 259.324219 212.898438 260.214844 207.773438 260.238281 C 204.414062 260.25 201.089844 259.929688 197.945312 258.785156 C 196.742188 258.351562 195.546875 257.898438 194.347656 257.472656 C 192.535156 256.820312 190.710938 256.199219 188.875 255.613281 L 186.371094 254.800781 C 186.726562 254.726562 187.015625 254.6875 187.085938 254.664062 C 187.121094 254.652344 187.160156 254.652344 187.195312 254.640625 C 187.519531 254.726562 187.84375 254.800781 188.175781 254.871094 C 190.632812 255.410156 193.199219 255.714844 195.757812 255.957031 C 198.988281 256.265625 202.230469 256.347656 205.347656 256.125 C 210.25 255.761719 215.320312 254.996094 220.351562 254.65625 C 223.699219 254.429688 227.039062 254.398438 230.300781 254.820312 C 231.285156 254.957031 232.261719 255.1875 233.226562 255.46875 C 233.671875 255.601562 234.105469 255.746094 234.539062 255.910156 C 234.773438 256.015625 235.003906 256.117188 235.234375 256.222656 Z M 189.027344 254.230469 C 189.855469 254.070312 190.683594 253.949219 191.507812 253.804688 C 192.910156 253.5625 194.308594 253.296875 195.710938 252.988281 C 197.769531 252.519531 199.917969 252.230469 202.082031 252.042969 C 205.359375 251.769531 208.6875 251.742188 211.867188 251.816406 C 215.636719 251.867188 219.539062 252.121094 223.398438 252.640625 C 225.542969 252.933594 227.65625 253.335938 229.742188 253.828125 C 229.855469 253.875 229.96875 253.917969 230.089844 253.976562 C 230.128906 253.992188 230.164062 254.007812 230.203125 254.023438 C 226.957031 253.566406 223.628906 253.535156 220.296875 253.746094 C 215.253906 254.046875 210.183594 254.839844 205.28125 255.21875 C 202.820312 255.40625 200.277344 255.398438 197.722656 255.238281 C 194.808594 255.074219 191.882812 254.636719 189.027344 254.230469 Z M 189.554688 231.605469 C 188.289062 230.066406 187.132812 228.476562 186.015625 226.875 C 184.074219 224.089844 182.265625 221.246094 180.367188 218.375 C 179.75 217.457031 179.164062 216.566406 178.59375 215.714844 C 178.003906 214.824219 177.433594 213.972656 176.921875 213.0625 C 176.269531 211.902344 175.699219 210.6875 175.246094 209.269531 C 175.007812 208.503906 174.710938 207.742188 174.460938 206.949219 C 174.308594 206.460938 174.171875 205.949219 174.085938 205.4375 C 173.957031 204.632812 173.921875 203.785156 173.957031 202.941406 C 174.007812 201.648438 174.195312 200.339844 174.277344 199.089844 L 174.59375 196.992188 C 174.894531 197.40625 175.191406 198.070312 175.347656 198.253906 L 175.507812 198.421875 C 176.449219 199.917969 177.292969 201.429688 177.972656 203.046875 C 179.332031 206.277344 180.25 209.734375 181.378906 213.0625 C 181.882812 214.535156 182.460938 215.980469 183.070312 217.402344 C 183.984375 219.527344 184.976562 221.613281 185.921875 223.730469 C 186.96875 226.035156 187.875 228.398438 189.039062 230.636719 C 189.207031 230.972656 189.375 231.289062 189.554688 231.605469 Z M 178.214844 201.289062 L 180.234375 203.425781 C 181.386719 204.78125 182.441406 206.140625 183.328125 207.582031 C 184.246094 209.070312 185.003906 210.625 185.648438 212.214844 C 186.675781 214.746094 187.316406 217.390625 187.925781 220.144531 C 188.078125 220.816406 188.238281 221.484375 188.378906 222.160156 C 188.835938 224.339844 189.097656 226.597656 189.539062 228.808594 C 189.683594 229.523438 189.84375 230.21875 190.03125 230.921875 C 189.761719 230.398438 189.507812 229.875 189.261719 229.332031 C 188.367188 227.378906 187.597656 225.355469 186.734375 223.367188 C 185.800781 221.261719 184.816406 219.171875 183.910156 217.042969 C 183.308594 215.632812 182.75 214.222656 182.253906 212.761719 C 181.121094 209.417969 180.195312 205.9375 178.824219 202.683594 C 178.628906 202.222656 178.429688 201.761719 178.214844 201.289062 Z M 119.117188 232.25 C 122.53125 233 126.03125 233.539062 129.515625 234.042969 C 132.679688 234.484375 135.855469 234.742188 139.023438 234.65625 C 140.527344 234.605469 142.039062 234.46875 143.554688 234.289062 C 147.015625 233.855469 150.488281 233.171875 153.929688 232.832031 C 158.136719 232.429688 162.402344 232.371094 166.59375 232.835938 C 168.355469 233.035156 170.09375 233.335938 171.820312 233.738281 C 171.320312 233.683594 170.808594 233.628906 170.292969 233.5625 C 168.472656 233.328125 166.414062 233.050781 164.410156 233.015625 C 163.011719 233.003906 161.640625 233.109375 160.390625 233.464844 C 156.042969 234.660156 151.535156 237.085938 146.980469 238.929688 C 145.089844 239.691406 143.207031 240.382812 141.300781 240.785156 C 139.402344 241.191406 137.488281 241.304688 135.542969 241.03125 C 134.753906 240.929688 133.949219 240.777344 133.144531 240.53125 C 132.394531 240.292969 131.710938 239.988281 131.042969 239.628906 C 129.96875 239.050781 128.953125 238.386719 127.871094 237.773438 C 126.855469 237.191406 125.847656 236.675781 124.875 236.125 C 124.222656 235.753906 123.59375 235.367188 122.964844 234.964844 C 121.953125 234.324219 120.964844 233.625 120.003906 232.816406 C 119.796875 232.636719 119.480469 232.449219 119.117188 232.25 Z M 117.464844 230.808594 C 118.136719 230.617188 118.789062 230.445312 118.859375 230.421875 C 120.195312 230.035156 121.578125 229.746094 122.972656 229.496094 C 125.089844 229.132812 127.230469 228.871094 129.324219 228.695312 C 131.273438 228.511719 133.238281 228.433594 135.207031 228.398438 C 138.175781 228.335938 141.148438 228.382812 144.101562 228.464844 C 146.640625 228.519531 149.171875 228.613281 151.695312 228.769531 C 152.777344 228.828125 153.863281 228.902344 154.941406 229.003906 C 159.636719 229.84375 164.292969 230.917969 168.910156 232.160156 C 168.175781 232.054688 167.4375 231.960938 166.703125 231.886719 C 162.441406 231.417969 158.113281 231.453125 153.839844 231.863281 C 150.386719 232.164062 146.898438 232.789062 143.421875 233.183594 C 141.941406 233.351562 140.464844 233.476562 138.992188 233.503906 C 136.664062 233.5625 134.335938 233.425781 132 233.167969 C 127.128906 232.652344 122.261719 231.617188 117.464844 230.808594 Z M 132.195312 192.746094 C 135.65625 196.128906 139.097656 199.558594 142.726562 202.761719 C 145.878906 205.539062 149.183594 208.125 152.777344 210.3125 C 156.0625 212.296875 159.839844 213.84375 163.367188 215.675781 C 164.324219 216.164062 165.25 216.722656 166.152344 217.285156 C 166.09375 217.261719 166.035156 217.238281 165.972656 217.21875 C 163.761719 216.394531 161.449219 215.765625 159.265625 214.960938 C 156.664062 214.011719 154.207031 212.9375 151.792969 211.746094 C 149.375 210.558594 147.003906 209.261719 144.640625 207.832031 C 143.152344 206.949219 141.476562 205.976562 139.933594 204.875 C 138.941406 204.160156 138.003906 203.414062 137.234375 202.585938 C 136.386719 201.6875 135.765625 200.726562 135.234375 199.722656 C 134.371094 198.09375 133.746094 196.371094 132.992188 194.566406 C 132.757812 193.949219 132.480469 193.347656 132.195312 192.746094 Z M 133.417969 192.636719 C 134.363281 193.117188 135.285156 193.632812 136.214844 194.128906 C 138.03125 195.097656 139.78125 196.203125 141.480469 197.363281 C 143.191406 198.53125 144.855469 199.789062 146.480469 201.054688 C 148.015625 202.242188 149.535156 203.449219 151.082031 204.628906 C 153.398438 206.394531 155.734375 208.121094 158.039062 209.886719 C 159.757812 211.207031 161.472656 212.527344 163.164062 213.886719 C 159.921875 212.277344 156.492188 210.910156 153.484375 209.125 C 149.921875 207.039062 146.644531 204.539062 143.503906 201.867188 C 140.035156 198.917969 136.742188 195.730469 133.417969 192.636719 Z M 174.878906 196.203125 C 174.878906 196.21875 174.878906 196.21875 174.875 196.21875 L 174.867188 196.222656 L 174.875 196.191406 Z M 174.882812 196.132812 C 174.878906 196.105469 174.871094 196.09375 174.855469 196.070312 C 174.824219 196.039062 174.921875 196.105469 174.902344 196.113281 C 174.890625 196.117188 174.882812 196.117188 174.882812 196.132812 Z M 185.269531 91.894531 C 185.132812 92.921875 185.03125 93.96875 184.929688 95.015625 C 184.492188 99.386719 184.28125 103.796875 183.972656 108.199219 C 183.734375 111.855469 183.496094 115.511719 183.449219 119.1875 C 183.410156 121.640625 183.457031 124.09375 183.589844 126.546875 C 183.734375 129.316406 183.949219 132.101562 184.367188 134.847656 C 184.066406 134.210938 183.765625 133.5625 183.464844 132.925781 C 183.4375 132.867188 183.414062 132.816406 183.390625 132.769531 C 183.382812 132.46875 183.367188 132.167969 183.351562 131.867188 C 183.171875 128.558594 182.515625 125.304688 182.257812 121.980469 C 181.984375 118.964844 181.878906 115.835938 181.9375 112.710938 C 181.992188 109.597656 182.210938 106.492188 182.679688 103.492188 C 182.949219 101.433594 183.257812 99.351562 183.695312 97.292969 C 183.988281 95.933594 184.332031 94.585938 184.765625 93.277344 Z M 237.222656 108.246094 C 236.769531 108.894531 236.304688 109.519531 235.820312 110.136719 C 235.191406 110.953125 234.523438 111.742188 233.816406 112.542969 C 232.003906 114.59375 229.722656 116.675781 227.222656 118.554688 C 225.640625 119.726562 223.980469 120.84375 222.246094 121.757812 C 219.257812 123.324219 216.109375 124.402344 212.953125 124.429688 C 212.164062 124.410156 211.363281 124.285156 210.5625 124.09375 C 209.320312 123.808594 208.085938 123.382812 206.902344 123.007812 C 206.066406 122.753906 205.117188 122.429688 204.167969 122.328125 C 205.628906 121.347656 207.195312 120.722656 208.8125 120.230469 C 210.277344 119.789062 211.785156 119.472656 213.320312 119.191406 C 216.945312 118.523438 220.6875 118.042969 224.128906 116.578125 C 225.726562 115.941406 227.296875 115.089844 228.835938 114.140625 C 230.398438 113.183594 231.945312 112.148438 233.414062 111.09375 C 234.054688 110.632812 234.675781 110.164062 235.292969 109.710938 C 235.929688 109.242188 236.566406 108.726562 237.222656 108.246094 Z M 186.34375 91.066406 C 186.367188 91.226562 186.386719 91.371094 186.410156 91.503906 C 186.539062 92.140625 186.675781 92.789062 186.824219 93.417969 C 187.175781 94.898438 187.582031 96.359375 187.957031 97.847656 C 188.640625 100.53125 189.628906 103.148438 190.402344 105.820312 C 190.59375 106.476562 190.765625 107.128906 190.921875 107.796875 C 191.101562 108.570312 191.1875 109.332031 191.226562 110.109375 C 191.292969 111.324219 191.246094 112.53125 191.25 113.765625 C 191.261719 116.175781 191.28125 118.441406 191.0625 120.730469 C 190.917969 122.222656 190.65625 123.710938 190.246094 125.230469 C 189.707031 127.113281 188.511719 128.617188 187.417969 130.113281 C 186.800781 130.96875 186.191406 131.808594 185.730469 132.695312 C 185.53125 130.625 185.382812 128.550781 185.3125 126.464844 C 185.230469 124.050781 185.222656 121.628906 185.242188 119.207031 C 185.273438 115.566406 185.359375 111.917969 185.511719 108.273438 C 185.71875 102.632812 185.816406 96.984375 186.316406 91.355469 C 186.328125 91.269531 186.335938 91.167969 186.34375 91.066406 Z M 204.292969 120.886719 C 204.339844 120.882812 204.390625 120.851562 204.46875 120.8125 C 204.613281 120.753906 204.652344 120.558594 204.742188 120.433594 C 206.257812 118.351562 207.734375 117.535156 210.214844 116.191406 C 211.210938 115.65625 212.144531 115.027344 213.117188 114.457031 C 213.503906 114.234375 213.898438 114.019531 214.308594 113.832031 C 215.375 113.285156 216.5 112.804688 217.652344 112.34375 C 220.359375 111.257812 223.207031 110.320312 225.871094 109.359375 C 226.992188 108.9375 228.117188 108.621094 229.25 108.359375 C 231.003906 107.960938 232.78125 107.710938 234.597656 107.402344 L 237.027344 107.046875 C 236.179688 107.550781 235.371094 108.132812 234.566406 108.648438 C 233.816406 109.144531 233.050781 109.648438 232.285156 110.175781 C 230.582031 111.386719 228.871094 112.6875 227.085938 113.773438 C 225.980469 114.457031 224.851562 115.0625 223.707031 115.550781 C 220.300781 116.878906 216.621094 117.175781 213.066406 117.789062 C 211.472656 118.078125 209.898438 118.417969 208.390625 118.925781 C 206.933594 119.433594 205.542969 120.097656 204.25 121.011719 Z M 159.261719 55.714844 C 159.054688 57.445312 159.019531 59.175781 159.09375 60.898438 C 159.257812 64.785156 160.039062 68.644531 160.996094 72.503906 C 162.007812 76.566406 163.277344 80.503906 164.671875 84.386719 C 166.757812 90.191406 169.113281 95.878906 171.230469 101.726562 C 172.023438 103.867188 172.765625 105.992188 173.464844 108.148438 C 174.15625 110.292969 174.808594 112.464844 175.367188 114.648438 C 176.113281 117.457031 176.585938 120.324219 177.265625 123.125 C 176.003906 121.652344 174.464844 120.382812 172.914062 119.132812 C 171.382812 117.890625 169.824219 116.695312 168.855469 114.90625 C 168.425781 114.175781 168.097656 113.394531 167.804688 112.589844 C 167.515625 111.796875 167.230469 111.003906 166.996094 110.195312 C 166.621094 108.914062 166.304688 107.621094 165.785156 106.417969 C 164.042969 102.34375 162.265625 98.449219 160.988281 94.40625 C 160.472656 92.773438 160.117188 91.101562 159.738281 89.421875 C 159.175781 86.972656 158.699219 84.496094 158.398438 81.886719 C 158.238281 80.539062 158.203125 79.191406 158.175781 77.84375 C 158.15625 76.933594 158.136719 76.023438 158.148438 75.121094 C 158.164062 72.800781 158.28125 70.472656 158.375 68.167969 C 158.441406 66.425781 158.523438 64.261719 158.648438 62.015625 C 158.722656 60.675781 158.792969 59.304688 158.9375 57.96875 C 159.027344 57.207031 159.136719 56.445312 159.261719 55.714844 Z M 160.4375 55.660156 L 161.378906 58.84375 C 162.148438 62.433594 163.109375 65.972656 163.953125 69.535156 C 164.3125 71.054688 164.640625 72.566406 164.941406 74.105469 C 165.5625 77.285156 166.570312 80.308594 167.789062 83.25 C 169.195312 86.640625 170.835938 89.929688 172.40625 93.242188 C 173.710938 96 174.988281 98.757812 175.9375 101.660156 C 175.925781 101.667969 175.910156 101.671875 175.894531 101.675781 C 175.722656 101.777344 175.664062 102.003906 175.765625 102.175781 C 176.242188 103.074219 176.578125 103.988281 176.820312 104.921875 C 176.925781 105.484375 177.007812 106.054688 177.070312 106.628906 C 177.183594 107.714844 177.199219 108.820312 177.222656 109.921875 C 177.257812 111.28125 177.191406 112.621094 177.292969 113.976562 C 177.320312 114.339844 177.394531 114.664062 177.441406 115.007812 C 177.441406 115.0625 177.457031 115.113281 177.488281 115.144531 C 177.488281 115.519531 177.496094 115.890625 177.503906 116.261719 C 177.363281 115.589844 177.210938 114.902344 177.050781 114.234375 C 176.503906 111.988281 175.882812 109.777344 175.195312 107.59375 C 174.511719 105.417969 173.757812 103.253906 172.96875 101.097656 C 170.421875 94.296875 167.566406 87.71875 165.164062 80.925781 C 164.148438 78.054688 163.207031 75.132812 162.414062 72.148438 C 161.585938 69.023438 160.878906 65.886719 160.523438 62.730469 C 160.261719 60.390625 160.210938 58.035156 160.4375 55.660156 Z M 223.917969 66.902344 C 223.964844 66.96875 223.996094 67.015625 224 67.027344 L 224.316406 67.894531 L 224.613281 68.847656 C 225.289062 71.082031 225.664062 73.578125 225.6875 76.082031 C 225.707031 78.558594 225.363281 81.015625 224.726562 83.25 C 224.453125 84.183594 224.085938 85.082031 223.6875 85.960938 C 223.289062 86.855469 222.851562 87.734375 222.359375 88.578125 C 220.84375 91.183594 218.910156 93.582031 217 95.84375 C 216.722656 96.1875 216.445312 96.527344 216.1875 96.890625 C 215.21875 98.234375 214.382812 99.675781 213.34375 100.972656 C 212.519531 101.996094 211.574219 102.929688 210.707031 103.921875 C 210.574219 104.078125 210.4375 104.230469 210.304688 104.386719 C 211.015625 102.335938 211.632812 100.261719 212.625 98.257812 C 214.308594 94.871094 216.394531 91.675781 218.1875 88.339844 C 218.640625 87.484375 219.085938 86.644531 219.488281 85.761719 C 219.980469 84.726562 220.40625 83.671875 220.800781 82.613281 C 221.382812 81.019531 221.882812 79.402344 222.378906 77.765625 C 222.785156 76.398438 223.140625 75.019531 223.394531 73.617188 C 223.652344 72.214844 223.804688 70.78125 223.851562 69.351562 C 223.871094 68.582031 223.949219 67.738281 223.917969 66.902344 Z M 222.652344 66.332031 C 222.765625 67.324219 222.648438 68.371094 222.613281 69.300781 C 222.566406 70.6875 222.402344 72.046875 222.160156 73.398438 C 221.917969 74.757812 221.605469 76.109375 221.226562 77.441406 C 220.769531 79.058594 220.3125 80.664062 219.765625 82.246094 C 219.40625 83.28125 219.007812 84.3125 218.550781 85.335938 C 217.957031 86.613281 217.304688 87.867188 216.597656 89.085938 C 214.921875 91.96875 213.019531 94.730469 211.457031 97.667969 C 210.613281 99.222656 209.960938 100.839844 209.367188 102.449219 C 209.15625 103.03125 208.949219 103.613281 208.738281 104.195312 C 208.726562 104.101562 208.710938 104.011719 208.699219 103.917969 C 208.480469 102.351562 208.121094 100.75 207.789062 99.195312 C 207.570312 98.1875 207.355469 97.191406 207.253906 96.210938 C 207.035156 94.230469 207.015625 92.101562 207.152344 90.003906 C 207.289062 87.90625 207.5625 85.832031 208.1875 83.921875 C 208.964844 81.488281 210.183594 79.601562 211.71875 77.945312 C 212.367188 77.261719 213.070312 76.613281 213.808594 75.984375 C 214.894531 75.070312 216.0625 74.214844 217.203125 73.230469 C 217.535156 72.941406 217.839844 72.617188 218.132812 72.285156 C 218.769531 71.5625 219.328125 70.769531 219.984375 70.066406 C 220.328125 69.691406 220.632812 69.300781 220.921875 68.914062 C 221.527344 68.074219 222.042969 67.199219 222.652344 66.332031 Z M 93.023438 138.558594 C 91.113281 136.648438 88.980469 134.964844 86.96875 133.160156 C 83.152344 129.726562 79.320312 126.316406 75.769531 122.628906 C 71.847656 118.566406 68.199219 114.25 65.058594 109.5 C 63.234375 106.773438 61.53125 104.058594 59.96875 101.257812 C 58.9375 99.40625 57.957031 97.523438 57.082031 95.535156 L 55.652344 92.277344 C 55.992188 92.652344 56.304688 93.019531 56.574219 93.304688 C 56.773438 93.542969 56.972656 93.769531 57.167969 93.996094 C 57.113281 93.972656 57.058594 93.992188 57.007812 94.023438 C 56.925781 94.078125 56.90625 94.195312 56.960938 94.273438 C 58.542969 96.625 60.027344 99.089844 61.617188 101.464844 C 62.691406 103.066406 63.820312 104.625 65.015625 106.101562 C 66.785156 108.28125 68.617188 110.394531 70.5 112.480469 C 74.875 117.335938 79.472656 121.992188 83.820312 126.84375 C 85.417969 128.621094 87.03125 130.449219 88.59375 132.304688 C 89.636719 133.542969 90.652344 134.789062 91.628906 136.050781 C 92.398438 137.03125 93.136719 138.09375 93.929688 139.105469 C 93.777344 139.015625 93.625 138.929688 93.472656 138.839844 C 93.324219 138.75 93.171875 138.648438 93.023438 138.558594 Z M 57.441406 94.308594 C 58.566406 95.617188 59.691406 96.898438 60.851562 98.136719 C 61.832031 99.191406 62.839844 100.203125 63.871094 101.222656 C 65.535156 102.839844 67.261719 104.40625 68.992188 105.957031 C 72.988281 109.550781 77.058594 113.09375 80.789062 116.941406 C 83.046875 119.277344 85.171875 121.742188 87.066406 124.417969 C 89.179688 127.464844 90.109375 131.058594 91.582031 134.375 C 90.855469 133.460938 90.113281 132.554688 89.355469 131.652344 C 87.789062 129.796875 86.167969 127.957031 84.566406 126.167969 C 80.210938 121.335938 75.625 116.644531 71.21875 111.828125 C 69.332031 109.769531 67.472656 107.691406 65.6875 105.546875 C 64.78125 104.472656 63.925781 103.339844 63.078125 102.191406 C 61.160156 99.589844 59.335938 96.890625 57.441406 94.308594 Z M 22.515625 125.109375 C 23.046875 125.210938 23.566406 125.34375 24.097656 125.449219 C 25.117188 125.636719 26.152344 125.785156 27.183594 125.914062 C 27.933594 126.015625 28.6875 126.074219 29.449219 126.085938 C 32.585938 126.105469 35.765625 126.046875 38.945312 125.859375 C 40.371094 125.777344 41.789062 125.644531 43.210938 125.539062 C 46.542969 125.273438 49.867188 124.984375 53.125 124.535156 C 55.234375 124.257812 57.289062 124.09375 59.355469 124.050781 C 61.410156 124 63.472656 124.070312 65.597656 124.175781 C 66.867188 124.257812 68.121094 124.382812 69.332031 124.625 C 69.660156 124.738281 69.984375 124.851562 70.3125 124.980469 C 70.554688 125.121094 70.796875 125.265625 71.035156 125.410156 C 71.964844 125.976562 72.875 126.578125 73.78125 127.207031 C 73.375 127.203125 72.976562 127.238281 72.570312 127.273438 C 71.242188 127.421875 69.917969 127.84375 68.578125 128.351562 C 66.757812 129.0625 64.898438 129.9375 63.042969 130.660156 C 62.28125 130.964844 61.503906 131.195312 60.71875 131.398438 C 59.511719 131.695312 58.292969 131.917969 57.0625 132.144531 C 54.0625 132.699219 50.996094 133.113281 47.9375 133.203125 C 46.425781 133.242188 44.914062 133.1875 43.410156 133.058594 C 41.925781 132.921875 40.445312 132.714844 38.976562 132.339844 C 37.792969 132.046875 36.59375 131.636719 35.40625 131.183594 C 33.585938 130.480469 31.785156 129.65625 30.058594 128.949219 C 28.117188 128.132812 26.0625 127.4375 24.246094 126.355469 C 23.628906 125.988281 23.054688 125.566406 22.515625 125.109375 Z M 23.660156 124.605469 L 27.273438 123.804688 C 29.203125 123.394531 31.125 123.023438 33.054688 122.695312 C 34.984375 122.363281 36.917969 122.074219 38.878906 121.832031 C 44.632812 121.003906 50.980469 120.941406 57.179688 121.742188 C 60.003906 122.117188 62.792969 122.683594 65.492188 123.417969 C 63.398438 123.414062 61.363281 123.460938 59.332031 123.574219 C 57.261719 123.699219 55.195312 123.867188 53.078125 124.1875 C 49.207031 124.699219 45.261719 125.113281 41.292969 125.265625 C 38.921875 125.351562 36.554688 125.3125 34.195312 125.285156 C 32.613281 125.265625 31.035156 125.257812 29.46875 125.207031 C 27.742188 125.164062 26.0625 124.757812 24.351562 124.640625 C 24.121094 124.621094 23.890625 124.613281 23.660156 124.605469 Z M 56.25 52.75 C 56.203125 52.726562 56.144531 52.714844 56.09375 52.746094 C 56.003906 52.789062 55.960938 52.886719 55.996094 52.972656 C 57.21875 56.121094 58.925781 59.125 60.988281 61.925781 C 64.039062 66.078125 67.800781 69.808594 71.261719 73.3125 C 74.03125 76.078125 76.789062 78.832031 79.597656 81.539062 C 81.476562 83.351562 83.367188 85.125 85.292969 86.890625 C 88.292969 89.609375 91.601562 92.414062 94.484375 95.515625 C 96.398438 97.578125 98.128906 99.765625 99.425781 102.183594 C 99.441406 102.207031 99.460938 102.242188 99.480469 102.261719 C 99.578125 102.507812 99.675781 102.753906 99.777344 102.996094 C 99.246094 102.464844 98.675781 101.945312 98.085938 101.460938 C 94.761719 98.738281 90.492188 96.816406 86.96875 94.730469 C 86.011719 94.15625 85.125 93.5625 84.308594 92.984375 C 78.363281 88.644531 72.867188 84.144531 68.242188 79.007812 C 67.0625 77.707031 65.925781 76.375 64.863281 74.976562 C 63.128906 72.691406 61.582031 70.230469 60.257812 67.574219 C 59.007812 65.058594 57.933594 62.363281 57.140625 59.417969 C 56.667969 57.839844 56.179688 56.074219 55.898438 54.308594 C 55.824219 53.847656 55.753906 53.398438 55.726562 52.9375 C 55.71875 52.730469 55.710938 52.527344 55.71875 52.328125 Z M 103.003906 61.398438 C 103.003906 61.382812 103.011719 61.382812 103.011719 61.367188 C 103.226562 61.753906 103.371094 62.179688 103.484375 62.597656 C 103.816406 63.820312 103.878906 65.160156 104.070312 66.375 C 104.421875 68.324219 104.671875 70.28125 104.855469 72.242188 C 105.136719 75.230469 105.273438 78.207031 105.554688 81.207031 C 105.664062 82.460938 105.808594 83.71875 105.882812 84.96875 C 105.933594 85.785156 105.957031 86.609375 105.925781 87.425781 C 105.875 88.757812 105.777344 90.109375 105.613281 91.453125 C 105.445312 92.769531 105.207031 94.082031 104.875 95.382812 C 104.226562 97.761719 102.292969 99.9375 101.285156 102.238281 L 101.265625 102.203125 C 101.316406 102.019531 101.371094 101.835938 101.402344 101.644531 C 101.425781 101.527344 101.421875 101.402344 101.429688 101.273438 C 101.554688 99.597656 101.867188 97.925781 102.089844 96.246094 C 102.214844 95.316406 102.308594 94.382812 102.335938 93.445312 L 102.484375 82.191406 C 102.570312 77.988281 102.417969 73.710938 102.480469 69.460938 C 102.511719 66.914062 102.625 64.394531 102.9375 61.890625 C 102.957031 61.71875 103.019531 61.558594 103.003906 61.398438 Z M 101.796875 64.179688 C 101.667969 65.207031 101.574219 66.25 101.511719 67.296875 C 101.203125 72.238281 101.457031 77.257812 101.308594 82.164062 L 101.070312 93.40625 C 101.007812 95.019531 100.730469 96.636719 100.480469 98.246094 C 100.421875 97.847656 100.363281 97.4375 100.300781 97.015625 C 99.765625 93.460938 99.511719 89.882812 99.425781 86.304688 C 99.34375 82.726562 99.429688 79.132812 99.742188 75.550781 C 99.921875 73.425781 100.199219 71.308594 100.597656 69.207031 C 100.914062 67.507812 101.308594 65.824219 101.796875 64.179688 Z M 56.296875 52.789062 L 57.453125 53.726562 L 61.554688 56.914062 C 63.101562 58.066406 64.613281 59.289062 66.097656 60.550781 C 68.328125 62.4375 70.496094 64.414062 72.617188 66.40625 C 74.25 67.933594 75.839844 69.492188 77.421875 71.039062 C 79.816406 73.382812 82.160156 75.730469 84.386719 78.1875 C 85.5 79.417969 86.582031 80.671875 87.648438 81.941406 C 90.070312 84.820312 92.390625 87.816406 94.492188 91.035156 C 95.609375 93.316406 96.644531 95.582031 97.613281 97.816406 C 96.867188 96.796875 96.0625 95.816406 95.210938 94.863281 C 92.371094 91.679688 89.058594 88.816406 86.082031 86.035156 C 83.699219 83.839844 81.367188 81.582031 79.050781 79.308594 C 76.734375 77.035156 74.433594 74.738281 72.136719 72.441406 C 68.664062 69.011719 65 65.277344 61.8125 61.292969 C 59.679688 58.625 57.730469 55.84375 56.328125 52.835938 C 56.320312 52.824219 56.308594 52.800781 56.296875 52.789062 Z M 159.753906 53.316406 C 159.730469 53.339844 159.707031 53.359375 159.6875 53.394531 C 159.695312 53.324219 159.710938 53.261719 159.722656 53.203125 Z M 159.753906 53.316406 " fill-opacity="1" fill-rule="evenodd"/></g></g></g></g></g></g></g></g></svg>